{
  "accessors": [
    {
      "bufferView": 2,
      "componentType": 5126,
      "count": 9000,
      "max": [
        0.5535125136375427,
        1.8485270738601685,
        0.5671172142028809
      ],
      "min": [
        -0.5363314747810364,
        0.7154700756072998,
        -0.3592747449874878
      ],
      "type": "VEC3"
    },
    {
      "bufferView": 2,
      "byteOffset": 108000,
      "componentType": 5126,
      "count": 9000,
      "max": [
        1.0,
        0.999646008014679,
        0.999967634677887
      ],
      "min": [
        -1.0,
        -0.9997523427009583,
        -0.9999445676803589
      ],
      "type": "VEC3"
    },
    {
      "bufferView": 1,
      "componentType": 5126,
      "count": 9000,
      "max": [
        1.998687982559204,
        0.9960179924964905
      ],
      "min": [
        0.002532999962568283,
        0.0039370059967041016
      ],
      "type": "VEC2"
    },
    {
      "bufferView": 1,
      "byteOffset": 72000,
      "componentType": 5126,
      "count": 9000,
      "max": [
        1.0,
        0.0
      ],
      "min": [
        1.0,
        0.0
      ],
      "type": "VEC2"
    },
    {
      "bufferView": 0,
      "componentType": 5125,
      "count": 28722,
      "type": "SCALAR"
    },
    {
      "bufferView": 2,
      "byteOffset": 216000,
      "componentType": 5126,
      "count": 399,
      "max": [
        0.37565651535987854,
        1.751603126525879,
        0.683938205242157
      ],
      "min": [
        -0.33613547682762146,
        1.115739107131958,
        -0.3805147409439087
      ],
      "type": "VEC3"
    },
    {
      "bufferView": 2,
      "byteOffset": 220788,
      "componentType": 5126,
      "count": 399,
      "max": [
        0.9975343346595764,
        0.999034583568573,
        0.9818822145462036
      ],
      "min": [
        -0.9988734722137451,
        -0.9822105169296265,
        -0.9978923797607422
      ],
      "type": "VEC3"
    },
    {
      "bufferView": 1,
      "byteOffset": 144000,
      "componentType": 5126,
      "count": 399,
      "max": [
        0.980072021484375,
        0.9860230088233948
      ],
      "min": [
        0.01687600091099739,
        0.007827997207641602
      ],
      "type": "VEC2"
    },
    {
      "bufferView": 1,
      "byteOffset": 147192,
      "componentType": 5126,
      "count": 399,
      "max": [
        1.0,
        0.0
      ],
      "min": [
        1.0,
        0.0
      ],
      "type": "VEC2"
    },
    {
      "bufferView": 0,
      "byteOffset": 114888,
      "componentType": 5125,
      "count": 2172,
      "type": "SCALAR"
    },
    {
      "bufferView": 2,
      "byteOffset": 225576,
      "componentType": 5126,
      "count": 2751,
      "max": [
        0.08073451370000839,
        2.171647071838379,
        1.155007243156433
      ],
      "min": [
        -0.0819854885339737,
        0.5856128334999084,
        -1.2407636642456055
      ],
      "type": "VEC3"
    },
    {
      "bufferView": 2,
      "byteOffset": 258588,
      "componentType": 5126,
      "count": 2751,
      "max": [
        1.0,
        0.9993586540222168,
        0.999275267124176
      ],
      "min": [
        -1.0,
        -0.9931641817092896,
        -0.998525083065033
      ],
      "type": "VEC3"
    },
    {
      "bufferView": 1,
      "byteOffset": 150384,
      "componentType": 5126,
      "count": 2751,
      "max": [
        0.9980469942092896,
        1.004196047782898
      ],
      "min": [
        0.004058999940752983,
        0.0
      ],
      "type": "VEC2"
    },
    {
      "bufferView": 0,
      "byteOffset": 123576,
      "componentType": 5125,
      "count": 10236,
      "type": "SCALAR"
    },
    {
      "bufferView": 2,
      "byteOffset": 291600,
      "componentType": 5126,
      "count": 720,
      "max": [
        0.25590550899505615,
        2.3355488777160645,
        1.5712672472000122
      ],
      "min": [
        -0.24543748795986176,
        1.4350357055664063,
        0.9532251954078674
      ],
      "type": "VEC3"
    },
    {
      "bufferView": 2,
      "byteOffset": 300240,
      "componentType": 5126,
      "count": 720,
      "max": [
        0.9999139904975891,
        0.9995940327644348,
        0.9995123147964478
      ],
      "min": [
        -0.9997843503952026,
        -0.9989612102508545,
        -0.9905956983566284
      ],
      "type": "VEC3"
    },
    {
      "bufferView": 1,
      "byteOffset": 172392,
      "componentType": 5126,
      "count": 720,
      "max": [
        0.9822850227355957,
        0.9753419756889343
      ],
      "min": [
        0.019135000184178352,
        0.022507011890411377
      ],
      "type": "VEC2"
    },
    {
      "bufferView": 1,
      "byteOffset": 178152,
      "componentType": 5126,
      "count": 720,
      "max": [
        0.2010039985179901,
        2.20819091796875
      ],
      "min": [
        -0.19734199345111847,
        1.6902010440826416
      ],
      "type": "VEC2"
    },
    {
      "bufferView": 0,
      "byteOffset": 164520,
      "componentType": 5125,
      "count": 3828,
      "type": "SCALAR"
    },
    {
      "bufferView": 2,
      "byteOffset": 308880,
      "componentType": 5126,
      "count": 1308,
      "max": [
        0.33537352085113525,
        2.0087666511535645,
        1.0558862686157227
      ],
      "min": [
        -0.33003249764442444,
        0.008399724960327148,
        -0.9641510248184204
      ],
      "type": "VEC3"
    },
    {
      "bufferView": 2,
      "byteOffset": 324576,
      "componentType": 5126,
      "count": 1308,
      "max": [
        0.9998086094856262,
        0.999931275844574,
        0.9994434118270874
      ],
      "min": [
        -0.9998475313186646,
        -0.9997650980949402,
        -0.9996023774147034
      ],
      "type": "VEC3"
    },
    {
      "bufferView": 1,
      "byteOffset": 183912,
      "componentType": 5126,
      "count": 1308,
      "max": [
        1.9879610538482666,
        0.9881290197372437
      ],
      "min": [
        0.0037380000576376915,
        0.01327502727508545
      ],
      "type": "VEC2"
    },
    {
      "bufferView": 1,
      "byteOffset": 194376,
      "componentType": 5126,
      "count": 1308,
      "max": [
        0.250014990568161,
        1.790573000907898
      ],
      "min": [
        -0.25029000639915466,
        0.22850000858306885
      ],
      "type": "VEC2"
    },
    {
      "bufferView": 0,
      "byteOffset": 179832,
      "componentType": 5125,
      "count": 6270,
      "type": "SCALAR"
    },
    {
      "bufferView": 2,
      "byteOffset": 340272,
      "componentType": 5126,
      "count": 1272,
      "max": [
        0.12956251204013824,
        1.8753437995910645,
        1.5075472593307495
      ],
      "min": [
        -0.1227564811706543,
        1.4438247680664063,
        1.201882243156433
      ],
      "type": "VEC3"
    },
    {
      "bufferView": 2,
      "byteOffset": 355536,
      "componentType": 5126,
      "count": 1272,
      "max": [
        0.9994152188301086,
        0.9971020817756653,
        0.9933675527572632
      ],
      "min": [
        -0.9999693632125854,
        -0.9974666237831116,
        -0.994539201259613
      ],
      "type": "VEC3"
    },
    {
      "bufferView": 1,
      "byteOffset": 204840,
      "componentType": 5126,
      "count": 1272,
      "max": [
        0.9857479929924011,
        1.0015109777450562
      ],
      "min": [
        0.014359000138938427,
        0.0168759822845459
      ],
      "type": "VEC2"
    },
    {
      "bufferView": 1,
      "byteOffset": 215016,
      "componentType": 5126,
      "count": 1272,
      "max": [
        1.614501953125,
        2.4672698974609375
      ],
      "min": [
        -0.056380998343229294,
        -3.0641021728515625
      ],
      "type": "VEC2"
    },
    {
      "bufferView": 0,
      "byteOffset": 204912,
      "componentType": 5125,
      "count": 7074,
      "type": "SCALAR"
    }
  ],
  "asset": {
    "extras": {
      "author": "WildMesh 3D Free (https://sketchfab.com/WildMesh3DFree)",
      "license": "CC-BY-4.0 (http://creativecommons.org/licenses/by/4.0/)",
      "source": "https://sketchfab.com/3d-models/donkey-burro-3d-model-free-f6388127ff764ea39dbeed68eb77f075",
      "title": "Donkey / Burro 3D Model Free"
    },
    "generator": "Sketchfab-16.62.0",
    "version": "2.0"
  },
  "bufferViews": [
    {
      "buffer": 0,
      "byteLength": 233208,
      "name": "floatBufferViews",
      "target": 34963
    },
    {
      "buffer": 0,
      "byteLength": 225192,
      "byteOffset": 233208,
      "byteStride": 8,
      "name": "floatBufferViews",
      "target": 34962
    },
    {
      "buffer": 0,
      "byteLength": 370800,
      "byteOffset": 458400,
      "byteStride": 12,
      "name": "floatBufferViews",
      "target": 34962
    }
  ],
  "buffers": [
    {
      "byteLength": 829200,
      "uri": "scene.bin"
    }
  ],
  "extensionsRequired": [
    "KHR_materials_pbrSpecularGlossiness"
  ],
  "extensionsUsed": [
    "KHR_materials_pbrSpecularGlossiness"
  ],
  "images": [
    {
      "uri": "textures/Material.003_diffuse.png"
    },
    {
      "uri": "textures/Material.004_diffuse.png"
    },
    {
      "uri": "textures/Material.002_diffuse.png"
    },
    {
      "uri": "textures/Material_diffuse.png"
    },
    {
      "uri": "textures/Material.001_diffuse.png"
    },
    {
      "uri": "textures/Material.005_diffuse.png"
    }
  ],
  "materials": [
    {
      "doubleSided": true,
      "extensions": {
        "KHR_materials_pbrSpecularGlossiness": {
          "diffuseFactor": [
            1.0,
            1.0,
            1.0,
            1.0
          ],
          "diffuseTexture": {
            "index": 0
          },
          "glossinessFactor": 1.0,
          "specularFactor": [
            0.0,
            0.0,
            0.0
          ]
        }
      },
      "name": "Material.003"
    },
    {
      "doubleSided": true,
      "extensions": {
        "KHR_materials_pbrSpecularGlossiness": {
          "diffuseFactor": [
            1.0,
            1.0,
            1.0,
            1.0
          ],
          "diffuseTexture": {
            "index": 1
          },
          "glossinessFactor": 1.0,
          "specularFactor": [
            0.0,
            0.0,
            0.0
          ]
        }
      },
      "name": "Material.004"
    },
    {
      "doubleSided": true,
      "extensions": {
        "KHR_materials_pbrSpecularGlossiness": {
          "diffuseFactor": [
            1.0,
            1.0,
            1.0,
            1.0
          ],
          "diffuseTexture": {
            "index": 2
          },
          "glossinessFactor": 1.0,
          "specularFactor": [
            0.0,
            0.0,
            0.0
          ]
        }
      },
      "name": "Material.002"
    },
    {
      "doubleSided": true,
      "extensions": {
        "KHR_materials_pbrSpecularGlossiness": {
          "diffuseFactor": [
            1.0,
            1.0,
            1.0,
            1.0
          ],
          "diffuseTexture": {
            "index": 3
          },
          "glossinessFactor": 1.0,
          "specularFactor": [
            0.0,
            0.0,
            0.0
          ]
        }
      },
      "name": "Material"
    },
    {
      "doubleSided": true,
      "extensions": {
        "KHR_materials_pbrSpecularGlossiness": {
          "diffuseFactor": [
            1.0,
            1.0,
            1.0,
            1.0
          ],
          "diffuseTexture": {
            "index": 4
          },
          "glossinessFactor": 1.0,
          "specularFactor": [
            0.0,
            0.0,
            0.0
          ]
        }
      },
      "name": "Material.001"
    },
    {
      "doubleSided": true,
      "extensions": {
        "KHR_materials_pbrSpecularGlossiness": {
          "diffuseFactor": [
            1.0,
            1.0,
            1.0,
            1.0
          ],
          "diffuseTexture": {
            "index": 5
          },
          "glossinessFactor": 1.0,
          "specularFactor": [
            0.0,
            0.0,
            0.0
          ]
        }
      },
      "name": "Material.005"
    }
  ],
  "meshes": [
    {
      "name": "Object_0",
      "primitives": [
        {
          "attributes": {
            "NORMAL": 1,
            "POSITION": 0,
            "TEXCOORD_0": 2,
            "TEXCOORD_1": 3
          },
          "indices": 4,
          "material": 0,
          "mode": 4
        }
      ]
    },
    {
      "name": "Object_1",
      "primitives": [
        {
          "attributes": {
            "NORMAL": 6,
            "POSITION": 5,
            "TEXCOORD_0": 7,
            "TEXCOORD_1": 8
          },
          "indices": 9,
          "material": 1,
          "mode": 4
        }
      ]
    },
    {
      "name": "Object_2",
      "primitives": [
        {
          "attributes": {
            "NORMAL": 11,
            "POSITION": 10,
            "TEXCOORD_0": 12
          },
          "indices": 13,
          "material": 2,
          "mode": 4
        }
      ]
    },
    {
      "name": "Object_3",
      "primitives": [
        {
          "attributes": {
            "NORMAL": 15,
            "POSITION": 14,
            "TEXCOORD_0": 16,
            "TEXCOORD_1": 17
          },
          "indices": 18,
          "material": 3,
          "mode": 4
        }
      ]
    },
    {
      "name": "Object_4",
      "primitives": [
        {
          "attributes": {
            "NORMAL": 20,
            "POSITION": 19,
            "TEXCOORD_0": 21,
            "TEXCOORD_1": 22
          },
          "indices": 23,
          "material": 4,
          "mode": 4
        }
      ]
    },
    {
      "name": "Object_5",
      "primitives": [
        {
          "attributes": {
            "NORMAL": 25,
            "POSITION": 24,
            "TEXCOORD_0": 26,
            "TEXCOORD_1": 27
          },
          "indices": 28,
          "material": 5,
          "mode": 4
        }
      ]
    }
  ],
  "nodes": [
    {
      "children": [
        1
      ],
      "matrix": [
        1.0,
        0.0,
        0.0,
        0.0,
        0.0,
        2.220446049250313e-16,
        -1.0,
        0.0,
        0.0,
        1.0,
        2.220446049250313e-16,
        0.0,
        0.0,
        0.0,
        0.0,
        1.0
      ],
      "name": "Sketchfab_model"
    },
    {
      "children": [
        2
      ],
      "name": "root"
    },
    {
      "children": [
        3,
        5,
        7,
        9,
        11,
        13
      ],
      "matrix": [
        1.0,
        0.0,
        0.0,
        0.0,
        0.0,
        2.220446049250313e-16,
        1.0,
        0.0,
        0.0,
        -1.0,
        2.220446049250313e-16,
        0.0,
        0.0,
        0.0,
        0.0,
        1.0
      ],
      "name": "GLTF_SceneRootNode"
    },
    {
      "children": [
        4
      ],
      "matrix": [
        1.0,
        0.0,
        0.0,
        0.0,
        0.0,
        1.0,
        0.0,
        0.0,
        0.0,
        0.0,
        1.0,
        0.0,
        -0.0028535127639770508,
        -0.000523105263710022,
        -0.0013002380728721619,
        1.0
      ],
      "name": "sm_3_0_0_0"
    },
    {
      "mesh": 0,
      "name": "Object_4"
    },
    {
      "children": [
        6
      ],
      "matrix": [
        1.0,
        0.0,
        0.0,
        0.0,
        0.0,
        1.0,
        0.0,
        0.0,
        0.0,
        0.0,
        1.0,
        0.0,
        -0.0028535127639770508,
        -0.000523105263710022,
        -0.0013002380728721619,
        1.0
      ],
      "name": "sm_2_0_1_1"
    },
    {
      "mesh": 1,
      "name": "Object_6"
    },
    {
      "children": [
        8
      ],
      "matrix": [
        1.0,
        0.0,
        0.0,
        0.0,
        0.0,
        1.0,
        0.0,
        0.0,
        0.0,
        0.0,
        1.0,
        0.0,
        -0.0028535127639770508,
        -0.000523105263710022,
        -0.0013002380728721619,
        1.0
      ],
      "name": "sm_4_0_0_2"
    },
    {
      "mesh": 2,
      "name": "Object_8"
    },
    {
      "children": [
        10
      ],
      "matrix": [
        1.0,
        0.0,
        0.0,
        0.0,
        0.0,
        1.0,
        0.0,
        0.0,
        0.0,
        0.0,
        1.0,
        0.0,
        -0.0028535127639770508,
        -0.0005230903625488281,
        -0.0013002376072108746,
        1.0
      ],
      "name": "sm_3_0_0.002_3"
    },
    {
      "mesh": 3,
      "name": "Object_10"
    },
    {
      "children": [
        12
      ],
      "matrix": [
        1.0,
        0.0,
        0.0,
        0.0,
        0.0,
        1.0,
        0.0,
        0.0,
        0.0,
        0.0,
        1.0,
        0.0,
        -0.0028535127639770508,
        -0.0005230903625488281,
        -0.0013002376072108746,
        1.0
      ],
      "name": "sm_1_0_0_4"
    },
    {
      "mesh": 4,
      "name": "Object_12"
    },
    {
      "children": [
        14
      ],
      "matrix": [
        1.0,
        0.0,
        0.0,
        0.0,
        0.0,
        1.0,
        0.0,
        0.0,
        0.0,
        0.0,
        1.0,
        0.0,
        -0.0028535127639770508,
        -0.0005230903625488281,
        -0.0013002376072108746,
        1.0
      ],
      "name": "sm_4_0_0.001_5"
    },
    {
      "mesh": 5,
      "name": "Object_14"
    }
  ],
  "samplers": [
    {
      "magFilter": 9729,
      "minFilter": 9987,
      "wrapS": 10497,
      "wrapT": 10497
    }
  ],
  "scene": 0,
  "scenes": [
    {
      "name": "Sketchfab_Scene",
      "nodes": [
        0
      ]
    }
  ],
  "textures": [
    {
      "sampler": 0,
      "source": 0
    },
    {
      "sampler": 0,
      "source": 1
    },
    {
      "sampler": 0,
      "source": 2
    },
    {
      "sampler": 0,
      "source": 3
    },
    {
      "sampler": 0,
      "source": 4
    },
    {
      "sampler": 0,
      "source": 5
    }
  ]
}
